<mxfile host="app.diagrams.net" agent="Mozilla/5.0 (Windows NT 10.0; Win64; x64) AppleWebKit/537.36 (KHTML, like Gecko) Chrome/131.0.0.0 Safari/537.36" version="26.0.5">
  <diagram name="Page-1" id="JN-WOQzJGcg5ktRG_yL-">
    <mxGraphModel dx="2012" dy="671" grid="1" gridSize="10" guides="1" tooltips="1" connect="1" arrows="1" fold="1" page="1" pageScale="1" pageWidth="850" pageHeight="1100" math="0" shadow="0">
      <root>
        <mxCell id="0" />
        <mxCell id="1" parent="0" />
        <mxCell id="xvqJw0znMFn5tl7_TeFd-3" value="Edit code on local git" style="edgeStyle=orthogonalEdgeStyle;rounded=0;orthogonalLoop=1;jettySize=auto;html=1;strokeWidth=1;fontSize=14;fontStyle=1" parent="1" source="xvqJw0znMFn5tl7_TeFd-1" target="xvqJw0znMFn5tl7_TeFd-2" edge="1">
          <mxGeometry x="-0.0028" relative="1" as="geometry">
            <mxPoint as="offset" />
          </mxGeometry>
        </mxCell>
        <mxCell id="xvqJw0znMFn5tl7_TeFd-12" value="" style="group" parent="1" vertex="1" connectable="0">
          <mxGeometry x="315" y="160" width="220" height="190" as="geometry" />
        </mxCell>
        <mxCell id="xvqJw0znMFn5tl7_TeFd-2" value="1. AutomationTool.ps1&lt;br&gt;&lt;br&gt;2. Scripts\*" style="rounded=0;whiteSpace=wrap;html=1;align=center;" parent="xvqJw0znMFn5tl7_TeFd-12" vertex="1">
          <mxGeometry y="110" width="220" height="80" as="geometry" />
        </mxCell>
        <mxCell id="xvqJw0znMFn5tl7_TeFd-11" value="" style="shape=image;verticalLabelPosition=bottom;labelBackgroundColor=default;verticalAlign=top;aspect=fixed;imageAspect=0;image=https://static-00.iconduck.com/assets.00/git-gui-icon-2048x2048-t4poesa1.png;" parent="xvqJw0znMFn5tl7_TeFd-12" vertex="1">
          <mxGeometry x="60" width="100" height="100" as="geometry" />
        </mxCell>
        <mxCell id="xvqJw0znMFn5tl7_TeFd-19" value="Automatically trigger Github Actions&lt;br&gt;CI pipeline" style="edgeStyle=orthogonalEdgeStyle;rounded=0;orthogonalLoop=1;jettySize=auto;html=1;fontSize=14;fontStyle=1;entryX=0.5;entryY=0;entryDx=0;entryDy=0;" parent="1" source="xvqJw0znMFn5tl7_TeFd-16" target="SUrGTEnKNwI1Z-liBG8V-7" edge="1">
          <mxGeometry relative="1" as="geometry">
            <mxPoint x="839" y="460" as="targetPoint" />
          </mxGeometry>
        </mxCell>
        <mxCell id="xvqJw0znMFn5tl7_TeFd-16" value="" style="shape=image;verticalLabelPosition=bottom;labelBackgroundColor=default;verticalAlign=top;aspect=fixed;imageAspect=0;image=https://logos-world.net/wp-content/uploads/2020/11/GitHub-Logo.png;" parent="1" vertex="1">
          <mxGeometry x="734" y="250.93" width="210" height="118.13" as="geometry" />
        </mxCell>
        <mxCell id="xvqJw0znMFn5tl7_TeFd-17" value="Push code to Github" style="edgeStyle=orthogonalEdgeStyle;rounded=0;orthogonalLoop=1;jettySize=auto;html=1;fontSize=14;fontStyle=1" parent="1" source="xvqJw0znMFn5tl7_TeFd-2" target="xvqJw0znMFn5tl7_TeFd-16" edge="1">
          <mxGeometry relative="1" as="geometry" />
        </mxCell>
        <mxCell id="xvqJw0znMFn5tl7_TeFd-21" value="Build the application" style="edgeStyle=orthogonalEdgeStyle;rounded=0;orthogonalLoop=1;jettySize=auto;html=1;fontSize=14;fontStyle=1;exitX=0;exitY=0.5;exitDx=0;exitDy=0;" parent="1" source="SUrGTEnKNwI1Z-liBG8V-7" target="xvqJw0znMFn5tl7_TeFd-20" edge="1">
          <mxGeometry relative="1" as="geometry">
            <mxPoint x="725" y="540" as="sourcePoint" />
          </mxGeometry>
        </mxCell>
        <mxCell id="xvqJw0znMFn5tl7_TeFd-20" value="" style="shape=image;verticalLabelPosition=bottom;labelBackgroundColor=default;verticalAlign=top;aspect=fixed;imageAspect=0;image=data:image/png,iVBORw0KGgoAAAANSUhEUgAAAJsAAACoCAYAAAD3j5yPAAAAAXNSR0IArs4c6QAAAARnQU1BAACxjwv8YQUAAAAJcEhZcwAADsMAAA7DAcdvqGQAABIzSURBVHhe7Z15dBTHnce/0zO6RhcgCQwGw1oSYCCAF7NOBMSwxJgj+AixwF4Tnm1WHM9etLvPfzjJe/s2a5v42FhgOzZKbC8kTry8lwQfiCQ+cHDQ+iA42DIyupAAc0gGhKJrNKOZraqullqjGak1kuppen4fUdTRPT3V3Z+pqu7p6XYEGCAIBWgyJohhh2QjlEGyEcog2QhlkGyEMkg2QhkkG6GMsOfZvF4vGhoa0NraCr/fL0sJQsfpdCI5ORmZmZlwuVyytG/Cynb27FlomoasrCwRE4SZzs5O1NfXw+FwYPz48bK0b8LKVllZiezsbBKNCAvv/erq6pCTkyNL+iasSdxBbi1BhIM3RAMZYlGzRSiDZCOUQbIRyiDZCGWQbIQySDZCGSQboQySjVAGyUYog2QjlEGyEcog2QhlkGyEMkg2QhkkG6EMko1QBslGKINkI5RBshHKINkIZZBshDJINkIZJBuhDJKNUAbJRiiDZCOUQbIRyiDZCGWQbIQySDZCGSQboQySjVAGyUYog2QjlEGyEcog2QhlkGyEMkg2Qhlhn4NQUVGB3NzcqLs9vbfNh7amDpmLDtLGuWUquuAP3qiursbUqVNlSd/YRjZPixfP3/YGAlH66AYH2wtbXluNhOQ4WTLyGahstuhGuWg/vT16RePwuvN14OtiV2whG2/RhhpnnIaElDi4RycgNSupK6RkJoqyhGQXNNfQ2z0c6zJSiHrZ+BhtKFq0pPT4HlK5RyUgPskFp6vnJuLDCl4W745D8ujEHq9JTB18F8jXha+THYl62QZ1MMB2bEqGLowr3ikLIycu0SWWlTwmQZZERrQd4FjFFt1oJIjuMTMJDm3ou0LNqektXVr0DPZVEHOy8XEWFyG4exwO4hL0lo4ebqgTc7LxcdZg+Ie7pmHJA3OQlZ0uS/onhbWgRAzJxrtL3soMho2/WoHZq69Fdt4E3PZfebj/leVi3GeFwb63HYgJ2bho/EBgMKx5YqFMdcOPTDe+skI8CNgKXLgA+4tVYkK2wYr23acWYfTEVJnrzZTbw08LJi3LDX/A+tOH7YStZXPG60eFkeIekyC6zlETUmRJaG5euwgfnHzXcguXPjYZl9rrZS52sLVs7vTIz3cls9bw7mf/Ueb65s2X3xbxh7UHLQs3edJk1Ld8KXOxgW1l47JECj96vOuZJTLXN9Wf1WFf8R9kbmDCjRs7LqaEs6VsmtMBLcKTtaljk7Bu52KZ65uqT2uxveBZmevGqnAp7lR0dHpiZgxnS9n4twORkDrOjbVF1kSrPHYSP970nMz1xqpwOZOn4lzzqZgQznay8dMckV6Dt/bpm2Sqbyr+WoPHN/9U5sJjRbg4VxxYjXGh5YzthbOdbJG2anc/Z22MduKTajyx5XmZ6x8rwvEPB/9raD1ra+FsJ9tAx2qjJqaI0xtuC19jbV3yfTy59QVseXYdNu3Il6X9059wE6+aJIXTcLHtvCy1H7Ycsw2E37//OjZ+4yERti7+Pnze0NeSlR+phNfjFaJx+JUdm3ZaF+6juvfCCudOcgvReO/PY7tiqzVzDHBt+MWOxX9+XAgkJGI7e/M3H0YHk8rM8Y8q8N8PFmPzM7poBpqmYfPOtTIXHtFqsXDk1KGwwhmiRTbajA5sJRu/stYqrgQn7tn1LdFCzZs3T5Td/9QaaC4NDyz9ochzPv+wAj/Z9jMsL+j93SiHH5Bsfia8cMZ4TPyxT8PR06UhhXMnJgvR+Dx2xVZrxgWySn5RzyNPQ7j1P1oNf6c+SC/74ASeLvwZVm29CX83e6IoCwUXaubCHJnrxhBN/GMSaSw4Wfj07Ee9hEtOZrLZWDSOrdaOt1JWCfVV1pQpU+BO079LPfLupyj615/j1n9ZgmtmjBdlffHNdTdg1k25MtctGo+ZYkI0zeFkLaEeHz//SQ/hkhL196WWzYb4fb1PMWRkZAjhOC/84Be449+W4uqp40TeCovunIc5S6f1EE0f+EvRZMxbNy7fifrPuoRzuVxiOn+FXYlZ2d74zw9kqidcuFFJY7DmoZtx1bVZstQ6C9fMw7xbZnaLJloyPXDJdNH0ls7J4uqvvpCv5L2tLqhdiVnZGqqv4Od3Hwg5WH/q3Yex4jvLZM4aXBKnk7VaLHDhCnbeiU5XBzqcrehwtcDDA0t7NQ8CWgBOzSWCS3Pi1KUaUQ8uILVsNubFf/p9SOE4xkFDf3DR+GkQHvgtCY4cOYI9e/ageoIXh8dn4Ib1c7DorrGY9fUjcFz9CU47P0eL1sjkYjuAd6vsdeeaTstl0ZjN1gxGOLNozc3NePXVV7HnjUP4dfMNeH/MnagcsxS3ficf6+5YjI1L2/HYPVdw38ov0ZD8F9ThODo1r96tBvSxHbVsUULAH1oYK3DhwmEIx4X0eDxob29HW1sbGhsbceHCBZSXl+OVvb/DD57YhddPJaN03Ho0uKfDpyXAzwTig38X617576CTE/y4Za4Xj65rxtzZ1biQ9jbOaMfQ6P8KrY4r8Dra0NLSIgJvJe1E1N/FqOlCK168RxeFfyPAf5UeKTNuuQZ5G2bKXG8+/vhjvPPOO6itrWUSOdDYkYCGTjdO+0bhSuIktMZlsDCaWclmFltV37T1P/57ZPnYkeexB0XePO3MRQ21DRqqzms4eTYFZ+qTkDb5asTFu7B+/XrMnj1bzDcSiblbZpll4z9AHuzvQq+7+RosuDe0cBcvXsT27dvxQuu34HW6mS4O+OFk4jlZWnYSfGuaZOJR/eMm2YKm8f941OkDvKwh87Hg9wPHv3Sic+ZjWLRoEZ9pRBKTt8wy8PvkThwE5W+dwuGXPpe5nvDTIvxMPxetgwWvlsTGXPFMFvnNRdfbm2QyV0mkTdNkmt+bzeUMICk+gNTEANLdfiSz2G7QAUIIyt8+Ffa0SHx8PPuflRuTxDwyL4KcYOQFRsI0rb+0DbGdbGFGBREhjlJDHXQYRb3ECs7zmCWMNEekZUG4NGcI12OkYDvZhvp2U3w82LdwMjZLE1xmILKm+UKlOTYUjWM72To7hu6y6vt/uRwpWUm9hRMysCCj3i0cj1nCnBfIjIhCpDk2FY1jyzHbULRu39hwnbhWbd2OxeLnfcYRLye9/Yzuh1mUrjyPzWVGoURkTdO7XsQwzVvXMPibE440bCmbz9PJ9ptpJw6QuEQnZt6iX/3B4T/vcyY4cP6LSyKv+Y1Lx03SdL2dqSwYUWaebprJXF+W5qdB7IYtZeM0X2yXqYHzvRdvlqlu7n15Od780YdIT09Hmu9itxw8MjzhZUZepGVeYEwwoq4JLNk7fbkjCW53dD4fIRy2OqkbTEKKC/FJA7vV6Nw7snHDnaFPUm5f/RLmbB6Px3YfwO9e+oksNWCbMeSWBDJS4tinmrWGvr/pBWHmM/MfD2/B97Y+iuzsbFky8ojpk7rBeJp9aLk8sBZu3ne7r7YNxs8sSWhNxeimWmiXjopvBbpDGbI6Q4XPhGiNbcB7NU49nJRxjRYyHCxrxGXvWGRlDfx6upGMrVs2Az4GS0zlJ2P7Z85t12L+2mky15PHWMvGt8dxXymW3FiDexd79AliC8rNGCLtWFTCJHJiyRNlXZNEbGx6OZ8xbXbTPjz47enYuHGjXjBCoZYtBN72TrQ2WWvhjr1Wg7YrUiITbzx9SIimsXCtaw4+rHKioYltPkOUrihE2sDI8jiMaKM7ziDTU4XVq1frBTYiJmTjdHoCaLx4Reb65pUt7+J//v11fPpOBf70y79g+60voexgtRCNX+qdrKUj0JiLo9VO+IOl6YpMaZkUBE8zxfwod1LbUaxZsQLjxln/7UO0EDOycZz+eFxu0k9f9IfvXBz2Fx3G4f89xnJ6i8ZFE60bS01wTsdvSkejrsFi68YjEdh/Rpr/Z5I1o6MGuR2N+PZy+7VqnJiSjePyJOHEyXK2j+VO7oOs1KvEj1K4aHxTcdHE1bQsTtUyoLVOwc4DbrQbP6A3BOqKzO/B0mG6Th47/R5Mb/0zpnbOQHqa9dveRxMxJxtnQsoUlNd8jnMN/d/1MSNlrH7ZtiEa/2Mx/3FKbsL1uNwwBS+8nYg2DxcySKZQmAQz4oTOJsz9228xrWMUMgJXC5ntSNTLFumDYSelZSPg0fBFTTlOsFB7pkZO6c1odyZSE0cJwcwh3pGIOYmLUX4iG7vfj0eHj0kSLJq5BTWmmVo4Ltqs5jcx2xOHqYEb2Q5xRu3DbvvDFi0bv/gwElITRiEtYbRoqbxeH6pqK1FdW4VzF86ipbWlR1fr0lxCML0r5VI54PV0wtPYiXFNc/Gno1fhedbCSaN0enXVLG8U8ZhNn97yRyZaPK4LfB0uxEW8LtGALWTjTyCOlNT4dBZG6RKJLtIhftDS0FCPU6dPoe5UHYtP4/TpM7jS0CxDC5q+akZbk0f8sj4pkIqcjjz837GJeO4tN5rauIwhrDGJ5u68JLrO2W3tmBaYD1dAPw84mHUZ6dhCNv6o6637VkfcKqTEpyElLr1bOCGdvmm6x2n6OErPi+PT7vlZnOIfg1m+JSj75Ho8/noaKs4bl4oHVYplszqqcOOV17CwPRVfw2LEB5JE3fk6RNNjuweKbZ4Rb8AfDBvpJUb+QPClFt3r3nMrmHJByXaPB/ve/C3++NZvcN/CZiyb5YFryR/wXrWGpY8exZS2j/A1x1/xwL3/jHnXzxe/oI/WMVrM/bpqpHLs2DH8Ys/LmJJQhlX37UDZaQ+efH43bpyciI0b78O0aaG/EosmSLYRxOXLl3Hw4EEcOnRIXC60bNkyzJ8/X/xCyw6QbCMMvkNaW1vFdtRv+Gef7UlfxI8w+JgsNTUVKSkpMf/BJdkIZZBshDJINkIZJBuhDJKNUAbJRiiDZCOUQbIRyiDZCGWQbIQySDZCGSQboQySjVAGyUYog2QjlEGyEcog2QhlkGyEMkg2QhkkG6EMko1QBslGKINkI5RBshHKINkIZZBshDJINkIZJBuhDJKNUAbJRiiDZCOUQbIRyiDZCGWQbIQySDZCGSQboYywsmmaJu4GTRDh4H7wG1RbJeyt6c+fPy8eFJaRkTGgBRKxgc/nQ0NDA+Li4iw/9TmsbMbCWlpa4Pf7ZSlB6PAGiN9uPzMz03JjFFY2ghhq6ACBUAbJRiiDZCOUQbIRylAkWxV2LHDAsWAHS9mPA5v405Q34YDMDxZ9eWHCpqF6F/19FuxQt0fUyFa1H3uRh7zSvdgfybod2DRyRA1RlxW7AggEdmGFzA8WfXl6KClgBQUlXfnArqF6F/Uoke3Ak4VA/m78sKAUhU8O3SeTiDLYp2WYKQkUIC9QVMmSlUWBPBSwEjOm6Qam+dgnm58H7A4F3a+uLMoLO43DX5tXVBIoyuueR8wilm+UBdWnxzQW8ooCRtXC1UV/H/MK9Fe3SlGnghI91ucJ2gYS8Z5B68Xpb9051rZPiDcdJoa/ZTuwD8V5+ViVw9I5q5CfV4x9A2jcRJfCtgrb6WCbpasbqdqxALmFs8A2n+xiKlFUtrLXmKa08BFgtz4P2/goXsnGPRt4kXwNq89K02uq9h9HfqVpmShErpweri7BWK1b8UpRETFPCW/1N1gbKlhZvtU6KIVVZFgJ/vSIT1uPT1jfLZugpKBHCxPyNZyg1/VuFfjrZOtm0GvZQQRPDzF/z3W0Uje9RevRqgSvsyT0OvS3fOvbxz4tW9UOPFKch3zRrOnkrMpHXvEjGNRBEG8tMQtTuxerkzOVlZahwrTsvBm5MmWQh15FQfBWoevob2WxLLXIAOo2q9dMPaeHxMryB1AHlQyrbFX796KU/RXmyh3HQ26hKNsb0WHpcHMAm1gdc/fm690kD+zjTwwNwyhbFfbvLWU9TqUcM3QHPnYq3bs//Pik8jjTsQ9yZ7D2KcQntKqClYb4RFtFvL4AJYe3wVhEVUWZTFlkuOpmYGX5w12HCBk+2fi5tdKeXaiB6EpLC6GfBcnFjDzzKRHWuoTqukqPo1ImkbNNP42Saz6RWoUdGwqBoocGeb7LtJPYMGBDYQjtzXUJZljrxrCy/OGuQ4QMm2z83FqpcRQajDgqZUdj4rA0B9sOl6CgmB0pia52H26vLGKfTBMrHtKPGvl005FhZVGZXiZCLvbmV+LwtkF8bNlO2l2E7m6fHywGd6Mh6hLMsNTNhJXlD3cdIoGuZyOUMbxHowRhgmQjlEGyEcog2QhFAP8Pkyox48JhkjMAAAAASUVORK5CYII=;" parent="1" vertex="1">
          <mxGeometry x="340" y="451.5" width="182.68" height="198" as="geometry" />
        </mxCell>
        <mxCell id="xvqJw0znMFn5tl7_TeFd-32" value="" style="endArrow=classic;html=1;rounded=0;entryX=0.5;entryY=1;entryDx=0;entryDy=0;exitX=1;exitY=0;exitDx=0;exitDy=0;" parent="1" source="xvqJw0znMFn5tl7_TeFd-26" target="xvqJw0znMFn5tl7_TeFd-20" edge="1">
          <mxGeometry width="50" height="50" relative="1" as="geometry">
            <mxPoint x="420" y="700" as="sourcePoint" />
            <mxPoint x="430" y="850" as="targetPoint" />
          </mxGeometry>
        </mxCell>
        <mxCell id="wYKqkAVc_GOLRXr0JduE-1" value="&lt;b&gt;&lt;font style=&quot;font-size: 14px;&quot;&gt;Tool for engineers to use&lt;/font&gt;&lt;/b&gt;" style="edgeLabel;html=1;align=center;verticalAlign=middle;resizable=0;points=[];" parent="xvqJw0znMFn5tl7_TeFd-32" vertex="1" connectable="0">
          <mxGeometry x="-0.0637" relative="1" as="geometry">
            <mxPoint as="offset" />
          </mxGeometry>
        </mxCell>
        <mxCell id="xvqJw0znMFn5tl7_TeFd-34" value="" style="group" parent="1" vertex="1" connectable="0">
          <mxGeometry x="310.00000000000006" y="760" width="206.99999999999994" height="260" as="geometry" />
        </mxCell>
        <mxCell id="xvqJw0znMFn5tl7_TeFd-29" value="" style="group" parent="xvqJw0znMFn5tl7_TeFd-34" vertex="1" connectable="0">
          <mxGeometry width="207" height="209" as="geometry" />
        </mxCell>
        <mxCell id="xvqJw0znMFn5tl7_TeFd-26" value="" style="shape=image;verticalLabelPosition=bottom;labelBackgroundColor=default;verticalAlign=top;aspect=fixed;imageAspect=0;image=https://cdn-icons-png.flaticon.com/512/219/219986.png;" parent="xvqJw0znMFn5tl7_TeFd-29" vertex="1">
          <mxGeometry x="10" width="112" height="112" as="geometry" />
        </mxCell>
        <mxCell id="xvqJw0znMFn5tl7_TeFd-28" value="" style="shape=image;verticalLabelPosition=bottom;labelBackgroundColor=default;verticalAlign=top;aspect=fixed;imageAspect=0;image=https://cdn-icons-png.flaticon.com/512/219/219986.png;" parent="xvqJw0znMFn5tl7_TeFd-29" vertex="1">
          <mxGeometry y="97" width="112" height="112" as="geometry" />
        </mxCell>
        <mxCell id="xvqJw0znMFn5tl7_TeFd-25" value="" style="shape=image;verticalLabelPosition=bottom;labelBackgroundColor=default;verticalAlign=top;aspect=fixed;imageAspect=0;image=https://cdn-icons-png.flaticon.com/512/219/219986.png;" parent="xvqJw0znMFn5tl7_TeFd-29" vertex="1">
          <mxGeometry x="60" y="30" width="147" height="147" as="geometry" />
        </mxCell>
        <mxCell id="xvqJw0znMFn5tl7_TeFd-33" value="&lt;font style=&quot;font-size: 14px;&quot;&gt;&lt;b&gt;Engineers&lt;/b&gt;&lt;/font&gt;" style="rounded=0;whiteSpace=wrap;html=1;" parent="xvqJw0znMFn5tl7_TeFd-34" vertex="1">
          <mxGeometry x="23.999999999999943" y="220" width="160" height="40" as="geometry" />
        </mxCell>
        <mxCell id="xvqJw0znMFn5tl7_TeFd-36" value="" style="group" parent="1" vertex="1" connectable="0">
          <mxGeometry x="-40" y="237.49" width="145" height="185" as="geometry" />
        </mxCell>
        <mxCell id="xvqJw0znMFn5tl7_TeFd-1" value="" style="shape=image;verticalLabelPosition=bottom;labelBackgroundColor=default;verticalAlign=top;aspect=fixed;imageAspect=0;image=https://upload.wikimedia.org/wikipedia/commons/thumb/1/12/User_icon_2.svg/640px-User_icon_2.svg.png;" parent="xvqJw0znMFn5tl7_TeFd-36" vertex="1">
          <mxGeometry width="145" height="145" as="geometry" />
        </mxCell>
        <mxCell id="xvqJw0znMFn5tl7_TeFd-35" value="&lt;font style=&quot;font-size: 14px;&quot;&gt;&lt;b&gt;Dev&lt;/b&gt;&lt;/font&gt;" style="rounded=0;whiteSpace=wrap;html=1;" parent="xvqJw0znMFn5tl7_TeFd-36" vertex="1">
          <mxGeometry x="10" y="145" width="125" height="40" as="geometry" />
        </mxCell>
        <mxCell id="SUrGTEnKNwI1Z-liBG8V-7" value="" style="shape=image;verticalLabelPosition=bottom;labelBackgroundColor=default;verticalAlign=top;aspect=fixed;imageAspect=0;image=https://user-images.githubusercontent.com/17984781/231239788-419ee9b0-0211-40f9-9d0a-d192db6718bd.png;" vertex="1" parent="1">
          <mxGeometry x="746.6700000000001" y="461" width="184.67" height="179" as="geometry" />
        </mxCell>
      </root>
    </mxGraphModel>
  </diagram>
</mxfile>
